# AST/ASF file generated using VICON BodyLanguage
# -----------------------------------------------
:version 1.10
:name VICON
:units
  mass 1.0
  length 0.45
  angle deg
:documentation
   .ast/.asf automatically generated from VICON data using
   VICON BodyBuilder and BodyLanguage model FoxedUp or BRILLIANT.MOD
:root
   order TX TY TZ RX RY RZ
   axis XYZ
   position 0 0 0  
   orientation 0 0 0 
:bonedata
  begin
     id 1 
     name lhipjoint
     direction 0.521689 -0.742065 0.420928 
     length 2.47002 
     axis 0 0 0  XYZ
  end
  begin
     id 2 
     name lfemur
     direction 0.34202 -0.939693 0  
     length 7.24654  
     axis 0 0 20  XYZ
    dof rx ry rz
    limits (-160.0 20.0)
           (-70.0 70.0)
           (-60.0 70.0)
  end
  begin
     id 3 
     name ltibia
     direction 0.34202 -0.939693 0   
     length 8.04849   
     axis 0 0 20   XYZ
    dof rx
    limits (-10.0 170.0)
  end
  begin
     id 4 
     name lfoot
     direction 0.0745411 -0.2048 0.975961   
     length 1.72367   
     axis -90 7.62852e-016 20   XYZ
    dof rx rz
    limits (-45.0 90.0)
           (-70.0 20.0)
  end
  begin
     id 5 
     name ltoes
     direction 1.53556e-011 -4.21901e-011 1   
     length 0.87311   
     axis -90 7.62852e-016 20   XYZ
    dof rx
    limits (-90.0 20.0)
  end
  begin
     id 6 
     name rhipjoint
     direction -0.52849 -0.738415 0.418857   
     length 2.48223  
     axis 0 0 0  XYZ 
  end
  begin
     id 7 
     name rfemur
     direction -0.34202 -0.939693 0   
     length 7.15571   
     axis 0 0 -20   XYZ
    dof rx ry rz
    limits (-160.0 20.0)
           (-70.0 70.0)
           (-70.0 60.0)
  end
  begin
     id 8 
     name rtibia
     direction -0.34202 -0.939693 0   
     length 7.81659   
     axis 0 0 -20   XYZ
    dof rx
    limits (-10.0 170.0)
 end
 begin
     id 9 
     name rfoot
     direction -0.0917348 -0.252039 0.963359   
     length 1.84382  
     axis -90 -7.62852e-016 -20   XYZ
    dof rx rz
    limits (-45.0 90.0)
           (-20.0 70.0)
  end
  begin
     id 10 
     name rtoes
     direction -1.53551e-011 -4.21879e-011 1   
     length 0.927771   
     axis -90 -7.62852e-016 -20   XYZ
    dof rx
    limits (-90.0 20.0)
  end
  begin
     id 11 
     name lowerback
     direction 0.00583058 0.999822 0.0179296   
     length 2.1429   
     axis 0 0 0   XYZ
    dof rx ry rz
    limits (-20.0 45.0)
           (-30.0 30.0)
           (-30.0 30.0)
  end
  begin
     id 12 
     name upperback
     direction -0.0137999 0.999752 -0.0175071   
     length 2.14252   
     axis 0 0 0   XYZ
    dof rx ry rz
    limits (-20.0 45.0)
           (-30.0 30.0)
           (-30.0 30.0)
  end
  begin
     id 13 
     name thorax
     direction -0.0158036 0.99955 -0.0254909   
     length 2.1383   
     axis 0 0 0   XYZ
    dof rx ry rz
    limits (-20.0 45.0)
           (-30.0 30.0)
           (-30.0 30.0)
  end
  begin
     id 14 
     name lowerneck
     direction -0.0101179 0.999403 -0.0330262   
     length 1.65808   
     axis 0 0 0   XYZ
    dof rx ry rz
    limits (-20.0 45.0)
           (-30.0 30.0)
           (-30.0 30.0)
  end
  begin
     id 15 
     name upperneck
     direction 0.0497734 0.995978 -0.074501   
     length 1.5897   
     axis 0 0 0   XYZ
    dof rx ry rz
    limits (-20.0 45.0)
           (-30.0 30.0)
           (-30.0 30.0)
  end
  begin
     id 16
     name head
     direction 0.0189524 0.999519 -0.0245438  
     length 1.74024  
     axis 0 0 0   XYZ
    dof rx ry rz
    limits (-20.0 45.0)
           (-30.0 30.0)
           (-30.0 30.0)
  end
  begin
     id 17 
     name lclavicle
     direction 0.945604 0.324422 0.0241537  
     length 3.59089  
     axis 0 0 0   XYZ
    dof ry rz
    limits (-20.0 10.0)
           (0.0 20.0)
  end
  begin
     id 18 
     name lhumerus
     direction 1 -4.48964e-011 -2.63524e-027   
     length 5.2391   
     axis 180 -30 -90   XYZ
    dof rx ry rz
    limits (-60.0 90.0)
           (-90.0 90.0)
           (-90.0 90.0)
  end
  begin
     id 19
     name lradius
     direction 1 -4.48969e-011 3.86978e-028   
     length 3.31467   
     axis 180 -30 -90   XYZ
    dof rx
    limits (-10.0 170.0)
  end
  begin
     id 20
     name lwrist
     direction 1 -4.48963e-011 7.20928e-028   
     length 1.65734   
     axis -5.52449e-016 90 90   XYZ
    dof ry
    limits (-180.0 0.0)
 end
  begin
     id 21 
     name lhand
     direction 1 -4.48964e-011 1.44186e-027   
     length 0.9659   
     axis -9.20027e-016 90 90   XYZ
    dof rx rz
    limits (-90.0 90.0)
           (-45.0 45.0)
  end
  begin
     id 22 
     name lfingers
     direction 1 -4.48965e-011 2.88371e-027   
     length 0.778733   
     axis -1.84005e-015 90 90   XYZ
    dof rx
    limits (0.0 90.0)
  end
  begin
     id 23
     name lthumb
     direction 0.707107 -6.34931e-011 0.707107   
     length 1.11811   
     axis -90 45 2.85299e-015   XYZ
    dof rx rz
    limits (-45.0 45.0)
           (-45.0 45.0)
  end
  begin
     id 24 
     name rclavicle
     direction -0.923762 0.370785 0.0958234   
     length 3.54196  
     axis 0 0 0   XYZ 
    dof ry rz
    limits (-10.0 20.0)
           (-20.0 0.0)
  end
  begin
     id 25 
     name rhumerus
     direction -1 -4.48966e-011 1.18702e-017  
     length 5.30252   
     axis 180 30 90   XYZ
    dof rx ry rz
    limits (-90.0 60.0)
           (-90.0 90.0)
           (-90.0 90.0)
  end
  begin
     id 26 
     name rradius
     direction -1 -4.48966e-011 4.46736e-027   
     length 3.67875   
     axis 180 30 90   XYZ
    dof rx
    limits (-10.0 170.0)
  end
  begin
     id 27 
     name rwrist
     direction -1 -4.48966e-011 7.20928e-028   
     length 1.83937   
     axis -5.52449e-016 -90 -90   XYZ
    dof ry
    limits (-180.0 0.0)
  end
  begin
     id 28
     name rhand
     direction -1 -4.48973e-011 1.44186e-027   
     length 0.594811   
     axis -9.20027e-016 -90 -90   XYZ
    dof rx rz
    limits (-90.0 90.0)
           (-45.0 45.0)
  end
  begin
     id 29
     name rfingers
     direction -1 -4.48963e-011 2.88371e-027   
     length 0.479552   
     axis -1.84005e-015 -90 -90   XYZ
    dof rx
    limits (0.0 90.0)
  end
  begin
     id 30
     name rthumb
     direction -0.707107 -6.34932e-011 0.707107   
     length 0.688544   
     axis -90 -45 -2.85299e-015   XYZ
    dof rx rz
    limits (-45.0 45.0)
           (-45.0 45.0)
  end
:hierarchy
  begin
    root lhipjoint rhipjoint lowerback
    lhipjoint lfemur
    lfemur ltibia
    ltibia lfoot
    lfoot ltoes
    rhipjoint rfemur
    rfemur rtibia
    rtibia rfoot
    rfoot rtoes
    lowerback upperback
    upperback thorax
    thorax lowerneck lclavicle rclavicle
    lowerneck upperneck
    upperneck head
    lclavicle lhumerus
    lhumerus lradius
    lradius lwrist
    lwrist lhand lthumb
    lhand lfingers
    rclavicle rhumerus
    rhumerus rradius
    rradius rwrist
    rwrist rhand rthumb
    rhand rfingers
  end

#!OML:ASF E:\acrobat2\Project_11_07_03\Capture day 1\Session 1\Acrobat.ASF
:FULLY-SPECIFIED
:DEGREES
227
root 11.317 19.9162 -15.2283 11.1671 2.93032 -2.97567
lowerback -0.205075 0.695305 -0.649169
upperback 2.0942 0.989111 -2.63638
thorax 2.29942 0.509865 -2.32178
lowerneck 3.10299 -2.49108 -2.43989
upperneck -5.71609 -3.0684 6.96151
head -2.21417 -1.67196 2.76938
rclavicle 3.18055e-015 -1.59028e-015
rhumerus -34.8859 -1.73889 -85.1734
rradius 36.1993
rwrist 1.02879
rhand -2.30863 -45.9127
rfingers 7.12502
rthumb 23.3773 -74.5129
lclavicle 3.18055e-015 -1.59028e-015
lhumerus -27.751 18.1826 68.0895
lradius 28.5643
lwrist 158.562
lhand -27.6713 11.2553
lfingers 7.12502
lthumb -1.0684 41.2323
rfemur -33.7832 -5.16677 18.3682
rtibia 63.3007
rfoot -33.3202 -5.75643
rtoes -3.47564
lfemur -24.6929 -7.38318 -15.1451
ltibia 43.3584
lfoot -35.8477 -20.3884
ltoes 10.4853
228
root 11.3231 19.9131 -15.1563 11.1253 3.23999 -2.99858
lowerback -0.208109 0.636006 -0.722078
upperback 2.14161 0.913434 -2.67678
thorax 2.34681 0.471479 -2.32402
lowerneck 3.13779 -2.50818 -2.64862
upperneck -5.69183 -3.08162 7.37036
head -2.20614 -1.68538 2.94729
rclavicle 2.78299e-015 -2.22639e-014
rhumerus -35.2403 -1.88139 -85.1413
rradius 36.4812
rwrist 1.01356
rhand -2.27454 -45.7199
rfingers 7.12502
rthumb 23.41 -74.316
lclavicle 2.78299e-015 -2.22639e-014
lhumerus -27.5528 18.466 67.9157
lradius 28.3416
lwrist 157.863
lhand -27.7629 11.1328
lfingers 7.12502
lthumb -1.15694 41.1094
rfemur -34.6338 -5.46106 18.5056
rtibia 65.1836
rfoot -33.0673 -5.99408
rtoes -4.61909
lfemur -24.1437 -7.44406 -15.1291
ltibia 42.9566
lfoot -36.1435 -20.3615
ltoes 9.05248
229
root 11.3321 19.9117 -15.0855 11.0813 3.42998 -2.92767
lowerback -0.0859757 0.672297 -0.792792
upperback 2.11071 0.962038 -2.82648
thorax 2.24978 0.495807 -2.43907
lowerneck 3.19553 -2.58363 -2.61994
upperneck -5.63009 -3.16736 7.69347
head -2.18889 -1.73765 3.05406
rclavicle 9.93923e-015 3.18055e-015
rhumerus -35.5602 -2.44305 -85.0931
rradius 36.555
rwrist 1.07458
rhand -2.08423 -45.9103
rfingers 7.12502
rthumb 23.5926 -74.4831
lclavicle 9.93923e-015 3.18055e-015
lhumerus -27.3789 18.4365 67.7512
lradius 28.142
lwrist 157.358
lhand -27.7133 10.7144
lfingers 7.12502
lthumb -1.10903 40.6912
rfemur -35.5192 -5.68221 18.4928
rtibia 67.0027
rfoot -32.8431 -5.88126
rtoes -4.94953
lfemur -23.6041 -7.50843 -15.2468
ltibia 42.5469
lfoot -36.2261 -20.3807
ltoes 8.68015
230
root 11.3415 19.9097 -15.0143 11.0526 3.67071 -2.88978
lowerback 0.0452119 0.683715 -0.885134
upperback 2.06735 0.975365 -2.91188
thorax 2.13199 0.501321 -2.47666
lowerneck 3.27827 -2.64869 -2.50978
upperneck -5.57457 -3.24442 7.83606
head -2.18118 -1.78295 3.08481
rclavicle 1.27222e-014 -1.11319e-014
rhumerus -35.8287 -2.88403 -85.0104
rradius 36.4933
rwrist 1.00656
rhand -2.22594 -45.9523
rfingers 7.12502
rthumb 23.4567 -74.5424
lclavicle 1.27222e-014 -1.11319e-014
lhumerus -27.2717 18.1681 67.7129
lradius 28.1323
lwrist 157.279
lhand -27.625 10.2858
lfingers 7.12502
lthumb -1.02377 40.2631
rfemur -36.3806 -5.98276 18.538
rtibia 68.7925
rfoot -32.6711 -5.42725
rtoes -4.6431
lfemur -23.1153 -7.59348 -15.3126
ltibia 42.1479
lfoot -36.1451 -20.6182
ltoes 9.15531
231
root 11.3504 19.9071 -14.9374 11.0379 3.9679 -2.91367
lowerback 0.033715 0.668967 -0.91941
upperback 2.08044 0.957591 -2.94473
thorax 2.15135 0.492326 -2.49146
lowerneck 3.39546 -2.74386 -2.35608
upperneck -5.61667 -3.36088 7.85271
head -2.21153 -1.84766 3.06886
rclavicle -1.19271e-014 1.43125e-014
rhumerus -36.1127 -3.13369 -84.924
rradius 36.4487
rwrist 0.924324
rhand -2.47406 -45.8069
rfingers 7.12502
rthumb 23.2186 -74.4273
lclavicle -1.19271e-014 1.43125e-014
lhumerus -27.151 17.9948 67.7232
lradius 28.2189
lwrist 157.222
lhand -27.6112 10.2165
lfingers 7.12502
lthumb -1.01043 40.1938
rfemur -37.1872 -6.28739 18.6663
rtibia 70.5036
rfoot -32.5899 -4.40668
rtoes -2.72787
lfemur -22.6553 -7.70459 -15.2845
ltibia 41.7778
lfoot -35.9941 -21.1178
ltoes 10.2869
232
root 11.3605 19.9048 -14.8583 11.0577 4.10576 -2.89087
lowerback -0.120994 0.67498 -1.04059
upperback 2.15978 0.974244 -2.94768
thorax 2.31877 0.498967 -2.42411
lowerneck 3.56116 -2.76112 -2.40503
upperneck -5.80004 -3.37051 7.96917
head -2.30062 -1.86073 3.12793
rclavicle 7.95139e-016 1.74931e-014
rhumerus -36.2613 -3.33588 -84.7862
rradius 36.3353
rwrist 0.973541
rhand -2.5489 -45.7565
rfingers 7.12502
rthumb 23.1468 -74.3859
lclavicle 7.95139e-016 1.74931e-014
lhumerus -26.9234 18.1723 67.794
lradius 28.1932
lwrist 157.024
lhand -27.5949 9.89945
lfingers 7.12502
lthumb -0.994673 39.8769
rfemur -38.1277 -6.4645 18.731
rtibia 72.0956
rfoot -32.2812 -3.4447
rtoes -1.08669
lfemur -22.2182 -7.78906 -15.3416
ltibia 41.4252
lfoot -35.7425 -21.6425
ltoes 12.1352
233
root 11.366 19.9035 -14.7781 11.1029 4.19806 -2.93497
lowerback -0.304744 0.693413 -1.18428
upperback 2.22336 1.00781 -2.91041
thorax 2.48572 0.512747 -2.30189
lowerneck 3.76551 -2.70838 -2.57889
upperneck -6.00876 -3.28341 8.23142
head -2.40885 -1.82819 3.26065
rclavicle 2.0276e-014 0
rhumerus -36.431 -3.57097 -84.6368
rradius 36.2749
rwrist 1.06639
rhand -2.40569 -46.0585
rfingers 7.12502
rthumb 23.2842 -74.6706
lclavicle 2.0276e-014 0
lhumerus -26.6336 18.3003 67.9413
lradius 28.1156
lwrist 156.948
lhand -27.5187 9.68237
lfingers 7.12502
lthumb -0.921067 39.6601
rfemur -39.1632 -6.57456 18.9287
rtibia 73.5401
rfoot -31.8598 -3.27061
rtoes -2.1973
lfemur -21.8081 -7.79549 -15.3163
ltibia 41.1007
lfoot -35.5468 -22.0414
ltoes 13.3977
234
root 11.3683 19.9065 -14.6957 11.166 4.37573 -3.0135
lowerback -0.426424 0.717249 -1.27121
upperback 2.25831 1.0455 -2.88354
thorax 2.5894 0.529539 -2.22286
lowerneck 3.84933 -2.82131 -2.68467
upperneck -6.04758 -3.42385 8.51058
head -2.42462 -1.90636 3.38422
rclavicle -1.66979e-014 1.43125e-014
rhumerus -36.5937 -3.75518 -84.5334
rradius 36.1934
rwrist 1.02541
rhand -2.34149 -46.3
rfingers 7.12502
rthumb 23.3458 -74.9043
lclavicle -1.66979e-014 1.43125e-014
lhumerus -26.338 18.1363 68.1393
lradius 28.1232
lwrist 157.111
lhand -27.381 9.6047
lfingers 7.12502
lthumb -0.788056 39.583
rfemur -40.2085 -6.70921 19.2113
rtibia 74.834
rfoot -31.4322 -3.64676
rtoes -4.84957
lfemur -21.4398 -7.74583 -15.2147
ltibia 40.8135
lfoot -35.5181 -22.2329
ltoes 13.5996
235
root 11.3733 19.9086 -14.6124 11.2147 4.57717 -3.08164
lowerback -0.448989 0.725406 -1.23781
upperback 2.27598 1.0576 -2.9017
thorax 2.62169 0.536617 -2.25971
lowerneck 3.81381 -2.96873 -2.71463
upperneck -5.99018 -3.6171 8.69526
head -2.38389 -2.00587 3.45568
rclavicle -1.74931e-014 -1.74931e-014
rhumerus -36.7562 -3.86507 -84.5049
rradius 36.0175
rwrist 0.931415
rhand -2.44222 -46.3256
rfingers 7.12502
rthumb 23.2492 -74.9421
lclavicle -1.74931e-014 -1.74931e-014
lhumerus -26.1133 18.1418 68.2398
lradius 28.2125
lwrist 157.239
lhand -27.2971 9.29436
lfingers 7.12502
lthumb -0.707013 39.2729
rfemur -41.2138 -6.87157 19.4821
rtibia 76.0048
rfoot -30.815 -3.76422
rtoes -6.09549
lfemur -21.0758 -7.67636 -15.1272
ltibia 40.5547
lfoot -35.5776 -22.3067
ltoes 13.1145
236
root 11.3792 19.9082 -14.529 11.2501 4.78186 -3.20596
lowerback -0.506671 0.719533 -1.07941
upperback 2.32209 1.05102 -2.93487
thorax 2.70511 0.537449 -2.38231
lowerneck 3.82547 -2.97621 -2.67416
upperneck -6.15898 -3.60762 8.80212
head -2.4425 -2.00847 3.49061
rclavicle -1.51076e-014 2.06736e-014
rhumerus -36.9372 -4.12554 -84.5064
rradius 35.7631
rwrist 1.12048
rhand -2.48358 -46.2305
rfingers 7.12502
rthumb 23.2095 -74.852
lclavicle -1.51076e-014 2.06736e-014
lhumerus -25.8276 18.0271 68.3377
lradius 28.2478
lwrist 157.517
lhand -27.2093 9.13493
lfingers 7.12502
lthumb -0.622267 39.1138
rfemur -42.1594 -7.03318 19.8368
rtibia 77.0421
rfoot -30.2572 -3.41807
rtoes -6.42867
lfemur -20.6954 -7.63609 -14.9821
ltibia 40.3018
lfoot -35.7711 -22.267
ltoes 11.5521
237
root 11.3836 19.9106 -14.4437 11.2725 5.00688 -3.22047
lowerback -0.686701 0.691704 -1.07868
upperback 2.48844 1.02584 -2.97097
thorax 2.97835 0.526326 -2.41848
lowerneck 3.7593 -2.92112 -2.64698
upperneck -6.36851 -3.50786 8.96411
head -2.50568 -1.96668 3.54419
rclavicle 1.98785e-014 -9.54166e-015
rhumerus -36.8916 -4.35302 -84.5235
rradius 35.4022
rwrist 1.3015
rhand -2.53719 -46.0791
rfingers 7.12502
rthumb 23.1581 -74.707
lclavicle 1.98785e-014 -9.54166e-015
lhumerus -25.3977 17.7437 68.5754
lradius 28.3371
lwrist 158.004
lhand -27.0667 9.25114
lfingers 7.12502
lthumb -0.48449 39.2303
rfemur -43.1104 -7.23638 20.0845
rtibia 77.9611
rfoot -29.9324 -3.08462
rtoes -7.29151
lfemur -20.2817 -7.69313 -14.9545
ltibia 40.0518
lfoot -35.8755 -22.3224
ltoes 10.5273
238
root 11.3895 19.9118 -14.3547 11.2897 5.16733 -3.08752
lowerback -0.661637 0.684465 -1.24844
upperback 2.50856 1.02166 -3.03342
thorax 2.98327 0.52117 -2.38806
lowerneck 3.71169 -2.90596 -2.55522
upperneck -6.31016 -3.4782 9.07283
head -2.47933 -1.95528 3.56088
rclavicle 2.38542e-015 -1.27222e-014
rhumerus -37.0876 -4.45853 -84.5045
rradius 35.1398
rwrist 1.29039
rhand -2.53945 -46.2243
rfingers 7.12502
rthumb 23.1559 -74.8526
lclavicle 2.38542e-015 -1.27222e-014
lhumerus -25.2052 17.291 68.8264
lradius 28.5462
lwrist 158.601
lhand -27.1109 9.15656
lfingers 7.12502
lthumb -0.527221 39.1357
rfemur -44.0923 -7.4097 20.1251
rtibia 78.7882
rfoot -29.6894 -2.77786
rtoes -8.21592
lfemur -19.8432 -7.7545 -15.1118
ltibia 39.8102
lfoot -35.7591 -22.78
ltoes 11.285
239
root 11.3942 19.9081 -14.2698 11.4338 5.44498 -2.9518
lowerback -0.455536 0.639614 -1.45243
upperback 2.34921 0.953469 -3.02825
thorax 2.69683 0.482001 -2.27257
lowerneck 3.81044 -2.92571 -2.53667
upperneck -6.21032 -3.50226 9.20162
head -2.46171 -1.97169 3.60308
rclavicle -5.1684e-015 -1.11319e-014
rhumerus -37.4747 -4.6282 -84.3355
rradius 34.8937
rwrist 1.57977
rhand -2.34889 -46.4045
rfingers 7.12502
rthumb 23.3387 -75.0097
lclavicle -5.1684e-015 -1.11319e-014
lhumerus -25.0939 16.8202 69.192
lradius 28.662
lwrist 159.096
lhand -27.2526 8.9173
lfingers 7.12502
lthumb -0.664022 38.896
rfemur -45.2647 -7.67204 20.2045
rtibia 79.5161
rfoot -29.3994 -2.31288
rtoes -8.46677
lfemur -19.6112 -7.85919 -15.2135
ltibia 39.573
lfoot -35.4401 -23.4495
ltoes 12.7824
240
root 11.3979 19.9062 -14.1862 11.7079 5.82728 -2.82347
lowerback -0.472018 0.542412 -1.66586
upperback 2.26165 0.823727 -2.95869
thorax 2.60783 0.411723 -2.08451
lowerneck 3.97923 -2.87246 -2.77113
upperneck -6.29236 -3.41925 9.54331
head -2.52045 -1.9402 3.7741
rclavicle 2.26615e-014 3.81667e-014
rhumerus -37.6935 -4.68656 -84.136
rradius 34.5876
rwrist 1.94793
rhand -2.14054 -46.3732
rfingers 7.12502
rthumb 23.5386 -74.9529
lclavicle 2.26615e-014 3.81667e-014
lhumerus -24.8697 16.4271 69.7166
lradius 28.8738
lwrist 159.54
lhand -27.2869 8.97634
lfingers 7.12502
lthumb -0.697137 38.9549
rfemur -46.6293 -8.07329 20.3422
rtibia 80.1165
rfoot -28.9947 -1.51211
rtoes -7.03919
lfemur -19.5446 -8.09559 -15.2723
ltibia 39.3516
lfoot -35.0867 -23.8268
ltoes 13.7129
241
root 11.4038 19.9094 -14.0943 11.8493 5.98627 -2.7783
lowerback -0.441477 0.530332 -1.72872
upperback 2.20166 0.805514 -2.95886
thorax 2.52749 0.401417 -2.0502
lowerneck 4.16991 -2.84628 -2.78054
upperneck -6.54584 -3.3561 9.71297
head -2.64474 -1.92303 3.84892
rclavicle -1.11319e-014 1.90833e-014
rhumerus -37.9899 -4.72958 -84.0537
rradius 34.3174
rwrist 2.15996
rhand -2.11038 -46.2768
rfingers 7.12502
rthumb 23.5675 -74.8528
lclavicle -1.11319e-014 1.90833e-014
lhumerus -24.6836 15.5887 70.1732
lradius 29.168
lwrist 160.432
lhand -27.1925 9.08696
lfingers 7.12502
lthumb -0.605995 39.0658
rfemur -47.8255 -8.29945 20.5155
rtibia 80.5418
rfoot -28.6344 -0.718322
rtoes -5.83525
lfemur -19.2565 -8.26944 -15.3311
ltibia 39.1544
lfoot -35.1335 -23.6121
ltoes 13.0224
